<?xml version="1.0" encoding="utf-8"?>
<!-- Generator: Adobe Illustrator 19.0.0, SVG Export Plug-In . SVG Version: 6.00 Build 0)  -->
<svg version="1.1" id="Layer_1" xmlns="http://www.w3.org/2000/svg" xmlns:xlink="http://www.w3.org/1999/xlink" x="0px" y="0px"
	 viewBox="0 0 25.9 31.9" style="enable-background:new 0 0 25.9 31.9;" xml:space="preserve">
<style type="text/css">
	.st0{fill:#95A1BB;}
</style>
<g id="XMLID_1501_">
	<g id="XMLID_1506_">
		<path id="XMLID_1512_" class="st0" d="M21.7,17c0-4,3.3-6,3.5-6.1c-1.9-2.8-4.8-3.1-5.8-3.2c-2.5-0.3-4.8,1.5-6.1,1.5
			c-1.3,0-3.2-1.4-5.3-1.4c-2.7,0-5.2,1.6-6.5,4c-2.8,4.9-0.7,12.1,2,16.1c1.4,1.9,2.9,4.1,5,4c2-0.1,2.8-1.3,5.2-1.3
			c2.4,0,3.1,1.3,5.3,1.2c2.2,0,3.6-1.9,4.9-3.9c1.6-2.2,2.2-4.4,2.2-4.5C25.9,23.4,21.7,21.8,21.7,17z"/>
		<path id="XMLID_1511_" class="st0" d="M17.7,5.1c1.1-1.4,1.8-3.2,1.6-5.1c-1.6,0.1-3.6,1.1-4.7,2.4c-1,1.2-1.9,3.1-1.7,4.9
			C14.7,7.5,16.5,6.5,17.7,5.1z"/>
	</g>
</g>
</svg>
