<?xml version="1.0" encoding="utf-8"?>
<!-- Generator: Adobe Illustrator 22.0.0, SVG Export Plug-In . SVG Version: 6.00 Build 0)  -->
<svg version="1.1" id="Layer_1" xmlns="http://www.w3.org/2000/svg" xmlns:xlink="http://www.w3.org/1999/xlink" x="0px" y="0px"
	 viewBox="0 0 187.1 199.7" style="enable-background:new 0 0 187.1 199.7;" xml:space="preserve">
<style type="text/css">
	.st0{fill:#D1D3D4;}
	.st1{font-family:'Lato-Black';}
	.st2{font-size:36.7496px;}
	.st3{font-family:'Lato-Light';}
	.st4{font-size:33.8192px;}
	.st5{font-family:'Lato-Regular';}
	.st6{font-size:11.2557px;}
</style>
<g>
	<path class="st0" d="M47.7,103.8c0,0,13.6,3.4,12.7-8.3c0,0,10.6,17.4,33.9,24.5C94.4,120,79.1,128.9,47.7,103.8z"/>
	<path class="st0" d="M129.7,91.2c-0.9-8.4-14.4-33.4-36.2-36c-21.8-2.6-10.5,10.1-7.8,13.1s13.3,11.9,13.3,11.9
		c14.4,13.2,10.9,24.1,7.1,29.5c-3.8,5.5-10.5,10.1-10.5,10.1C131.3,121,130.4,98.3,129.7,91.2z M99.1,69.9c-1.6,0-2.9-1.3-2.9-2.9
		c0-1.6,1.3-2.9,2.9-2.9c1.6,0,2.9,1.3,2.9,2.9C102,68.6,100.7,69.9,99.1,69.9z"/>
	<path class="st0" d="M115.4,35.4c0,0-13.8-2.4-12.1,9.3c0,0-11.9-16.5-35.7-21.8C67.7,22.9,82.2,12.9,115.4,35.4z"/>
	<path class="st0" d="M80.5,73.7c-2.9-2.8-14.2-10.9-14.2-10.9c-15.4-12-12.8-23.1-9.4-28.9c3.4-5.7,9.7-10.9,9.7-10.9
		c-35.8,1.8-33,23.7-31.8,31.3c0.9,5.9,16.9,32.2,38.9,33.1C95.6,88.3,83.4,76.5,80.5,73.7z M67.3,79c-1.6,0.1-3-1.1-3.1-2.7
		s1.1-3,2.7-3.1c1.6-0.1,3,1.1,3.1,2.7S68.9,78.9,67.3,79z"/>
	<path class="st0" d="M82.4,0C44.1,0,13,31.1,13,69.4c0,38.3,31.1,69.4,69.4,69.4s69.4-31.1,69.4-69.4C151.7,31.1,120.6,0,82.4,0z
		 M82.4,134.7c-36,0-65.3-29.3-65.3-65.3S46.3,4,82.4,4s65.3,29.3,65.3,65.3S118.4,134.7,82.4,134.7z"/>
	<text transform="matrix(1 0 0 1 0.3673 176.663)" class="st0 st1 st2">MIKA</text>
	<text transform="matrix(1 0 0 1 101.7443 174.3193)" class="st0 st3 st4">SUSHI</text>
	<text transform="matrix(1 0 0 1 54.5519 196.8525)" class="st0 st5 st6">AGADIR</text>
</g>
</svg>
