<?xml version="1.0" encoding="utf-8"?>
<!-- Generator: Adobe Illustrator 22.0.0, SVG Export Plug-In . SVG Version: 6.00 Build 0)  -->
<svg version="1.1" id="Layer_1" xmlns="http://www.w3.org/2000/svg" xmlns:xlink="http://www.w3.org/1999/xlink" x="0px" y="0px"
	 viewBox="0 0 250 250" style="enable-background:new 0 0 250 250;" xml:space="preserve">
<style type="text/css">
	.st0{fill:#F6921E;}
	.st1{fill:#EB008B;}
	.st2{fill:#404041;}
</style>
<g>
	<path class="st0" d="M69.1,181.6c0,0,21.9,5.6,20.6-13.4c0,0,17.1,28.1,54.7,39.6C144.4,207.8,119.7,222.1,69.1,181.6z"/>
	<path class="st0" d="M201.4,161.3c-1.5-13.6-23.2-53.9-58.5-58.2s-17,16.3-12.7,21.2c4.3,4.9,21.5,19.3,21.5,19.3
		c23.3,21.3,17.6,38.9,11.4,47.7c-6.2,8.8-17,16.3-17,16.3C204,209.4,202.6,172.8,201.4,161.3z M152.1,126.8c-2.6,0-4.7-2.1-4.7-4.7
		c0-2.6,2.1-4.7,4.7-4.7c2.6,0,4.7,2.1,4.7,4.7C156.7,124.7,154.6,126.8,152.1,126.8z"/>
	<path class="st1" d="M178.5,71.1c0,0-22.3-3.8-19.5,15c0,0-19.2-26.7-57.7-35.2C101.3,50.9,124.8,34.7,178.5,71.1z"/>
	<path class="st1" d="M121.9,132.9c-4.7-4.6-22.9-17.5-22.9-17.5C74.1,96,78.3,78,83.9,68.7c5.5-9.3,15.7-17.6,15.7-17.6
		C41.7,54,46.2,89.3,48.1,101.7c1.4,9.5,27.3,52,62.9,53.4S126.6,137.5,121.9,132.9z M100.7,141.6c-2.6,0.2-4.8-1.7-5-4.3
		c-0.2-2.6,1.7-4.8,4.3-5c2.6-0.2,4.8,1.7,5,4.3C105.2,139.1,103.3,141.4,100.7,141.6z"/>
	<path class="st2" d="M125,13.9C63.2,13.9,12.9,64.2,12.9,126c0,61.8,50.3,112.1,112.1,112.1S237.1,187.8,237.1,126
		C237.1,64.2,186.8,13.9,125,13.9z M125,231.6c-58.2,0-105.6-47.4-105.6-105.6S66.8,20.5,125,20.5S230.6,67.8,230.6,126
		S183.2,231.6,125,231.6z"/>
</g>
</svg>
