<?xml version="1.0" encoding="utf-8"?>
<!-- Generator: Adobe Illustrator 22.0.0, SVG Export Plug-In . SVG Version: 6.00 Build 0)  -->
<svg version="1.1" id="Layer_1" xmlns="http://www.w3.org/2000/svg" xmlns:xlink="http://www.w3.org/1999/xlink" x="0px" y="0px"
	 viewBox="0 0 1963.5 603" style="enable-background:new 0 0 1963.5 603;" xml:space="preserve">
<style type="text/css">
	.st0{fill:#414042;}
	.st1{fill:#EC008C;}
	.st2{fill:#F7941D;}
</style>
<g>
	<g>
		<g>
			<g>
				<g>
					<path class="st0" d="M875.1,155.3v155.2h-31.7v-89.3c0-2.1,0.1-4.3,0.2-6.7c0.1-2.4,0.3-4.9,0.6-7.4L802.9,287
						c-1.3,2.5-3,4.4-5.2,5.6c-2.2,1.3-4.6,1.9-7.4,1.9h-4.9c-2.8,0-5.2-0.6-7.4-1.9c-2.2-1.3-3.9-3.2-5.2-5.6l-41.2-80
						c0.2,2.6,0.4,5.1,0.5,7.5c0.1,2.5,0.2,4.7,0.2,6.8v89.3h-31.7V155.3h27.5c1.6,0,2.9,0,4.1,0.1c1.2,0.1,2.2,0.3,3.1,0.6
						c0.9,0.4,1.8,0.9,2.5,1.7s1.5,1.8,2.2,3.1l40,78.7c1.4,2.7,2.8,5.5,4.1,8.4c1.3,2.9,2.6,5.9,3.8,8.9c1.2-3.1,2.5-6.2,3.8-9.2
						c1.3-3,2.7-5.8,4.2-8.5l39.8-78.4c0.7-1.3,1.4-2.4,2.2-3.1c0.7-0.7,1.6-1.3,2.5-1.7c0.9-0.4,2-0.6,3.1-0.6
						c1.2-0.1,2.5-0.1,4.1-0.1H875.1z"/>
					<path class="st0" d="M941.4,310.5h-36.2V155.3h36.2V310.5z"/>
					<path class="st0" d="M1007.4,218.1h5.8c5.3,0,9.2-1.7,11.5-5l34.9-50.7c2.1-2.7,4.3-4.6,6.7-5.6c2.4-1,5.3-1.5,8.9-1.5h31.3
						l-46,62.8c-3.3,4.3-6.8,7.5-10.5,9.4c2.7,1,5.1,2.4,7.4,4.2c2.2,1.8,4.3,4.1,6.2,6.9l46.9,72h-32.2c-2.1,0-3.8-0.1-5.3-0.4
						c-1.5-0.3-2.7-0.7-3.8-1.3c-1.1-0.6-2-1.3-2.8-2.1c-0.8-0.8-1.5-1.8-2.2-2.8l-35.2-54c-1.3-2-2.9-3.4-4.8-4.2
						c-2-0.8-4.6-1.2-7.9-1.2h-8.7v66.1h-36V155.3h36V218.1z"/>
					<path class="st0" d="M1261.2,310.5h-27.9c-3.1,0-5.6-0.7-7.6-2.2c-1.9-1.5-3.4-3.3-4.4-5.6l-9.2-27.1h-59l-9.2,27.1
						c-0.8,2-2.2,3.8-4.2,5.4c-2,1.6-4.5,2.4-7.5,2.4h-28.1l60.1-155.2h36.9L1261.2,310.5z M1204,251.2l-14.4-42.5
						c-1.1-2.7-2.2-5.9-3.4-9.5c-1.2-3.7-2.4-7.6-3.6-11.9c-1.1,4.3-2.2,8.3-3.4,12c-1.2,3.7-2.3,6.9-3.4,9.6l-14.3,42.3H1204z"/>
					<path class="st0" d="M1401.2,186.8c-1.1,1.7-2.2,3-3.4,3.8c-1.2,0.9-2.7,1.3-4.5,1.3c-1.6,0-3.4-0.5-5.3-1.5
						c-1.9-1-4-2.2-6.4-3.5c-2.4-1.3-5.1-2.4-8.2-3.5c-3.1-1-6.5-1.5-10.4-1.5c-6.7,0-11.8,1.4-15.1,4.3c-3.3,2.9-5,6.8-5,11.7
						c0,3.1,1,5.7,3,7.8c2,2.1,4.6,3.8,7.8,5.3c3.2,1.5,6.9,2.9,11.1,4.1c4.2,1.2,8.4,2.6,12.7,4.2c4.3,1.5,8.6,3.3,12.7,5.4
						c4.2,2.1,7.8,4.7,11.1,7.9c3.2,3.2,5.8,7.1,7.8,11.7c2,4.6,3,10.1,3,16.6c0,7.2-1.2,13.9-3.7,20.1c-2.5,6.3-6.1,11.7-10.8,16.4
						c-4.7,4.7-10.5,8.3-17.5,11c-6.9,2.7-14.8,4-23.6,4c-4.8,0-9.7-0.5-14.8-1.5c-5-1-9.9-2.4-14.5-4.2c-4.7-1.8-9.1-4-13.2-6.4
						c-4.1-2.5-7.7-5.3-10.8-8.3l10.7-16.8c0.9-1.2,2-2.2,3.4-3c1.4-0.8,2.9-1.2,4.5-1.2c2.1,0,4.3,0.7,6.4,2
						c2.2,1.3,4.6,2.8,7.4,4.5c2.7,1.6,5.9,3.1,9.4,4.5c3.6,1.4,7.7,2,12.6,2c6.5,0,11.6-1.4,15.2-4.3c3.6-2.9,5.4-7.4,5.4-13.7
						c0-3.6-1-6.6-3-8.8c-2-2.3-4.6-4.2-7.8-5.6c-3.2-1.5-6.9-2.8-11-3.9c-4.1-1.1-8.3-2.4-12.7-3.8c-4.3-1.4-8.6-3.1-12.7-5.1
						c-4.1-2-7.8-4.7-11-8c-3.2-3.3-5.8-7.4-7.8-12.4c-2-4.9-3-11-3-18.3c0-5.8,1.2-11.5,3.5-17c2.3-5.5,5.8-10.5,10.3-14.8
						c4.5-4.3,10.1-7.8,16.7-10.4c6.6-2.6,14.2-3.9,22.7-3.9c4.8,0,9.4,0.4,13.9,1.1c4.5,0.7,8.8,1.8,12.8,3.3
						c4,1.5,7.8,3.2,11.3,5.2c3.5,2,6.7,4.3,9.4,6.9L1401.2,186.8z"/>
					<path class="st0" d="M1498.3,282.1c4.8,0,9.1-0.8,12.9-2.4c3.8-1.6,7-3.9,9.6-6.9c2.6-3,4.6-6.6,6-10.9
						c1.4-4.3,2.1-9.2,2.1-14.6v-91.9h36v91.9c0,9.5-1.5,18.3-4.6,26.2c-3.1,8-7.5,14.8-13.3,20.6c-5.8,5.8-12.8,10.2-21,13.4
						c-8.2,3.2-17.5,4.8-27.8,4.8c-10.4,0-19.7-1.6-27.9-4.8c-8.2-3.2-15.2-7.7-21-13.4c-5.8-5.8-10.2-12.6-13.2-20.6
						c-3.1-8-4.6-16.7-4.6-26.2v-91.9h36v91.8c0,5.5,0.7,10.4,2.1,14.6c1.4,4.3,3.4,8,6,11c2.6,3,5.8,5.3,9.6,6.9
						C1489.1,281.3,1493.4,282.1,1498.3,282.1z"/>
					<path class="st0" d="M1678.9,186.8c-1.1,1.7-2.2,3-3.4,3.8c-1.2,0.9-2.7,1.3-4.5,1.3c-1.6,0-3.4-0.5-5.3-1.5
						c-1.9-1-4-2.2-6.4-3.5c-2.4-1.3-5.1-2.4-8.2-3.5c-3.1-1-6.5-1.5-10.4-1.5c-6.7,0-11.8,1.4-15.1,4.3c-3.3,2.9-5,6.8-5,11.7
						c0,3.1,1,5.7,3,7.8c2,2.1,4.6,3.8,7.8,5.3c3.2,1.5,6.9,2.9,11.1,4.1c4.2,1.2,8.4,2.6,12.7,4.2c4.3,1.5,8.6,3.3,12.7,5.4
						c4.2,2.1,7.8,4.7,11.1,7.9c3.2,3.2,5.8,7.1,7.8,11.7c2,4.6,3,10.1,3,16.6c0,7.2-1.2,13.9-3.7,20.1c-2.5,6.3-6.1,11.7-10.8,16.4
						c-4.7,4.7-10.5,8.3-17.5,11c-6.9,2.7-14.8,4-23.6,4c-4.8,0-9.7-0.5-14.8-1.5c-5-1-9.9-2.4-14.5-4.2c-4.7-1.8-9.1-4-13.2-6.4
						c-4.1-2.5-7.7-5.3-10.8-8.3l10.7-16.8c0.9-1.2,2-2.2,3.4-3c1.4-0.8,2.9-1.2,4.5-1.2c2.1,0,4.3,0.7,6.4,2
						c2.2,1.3,4.6,2.8,7.4,4.5c2.7,1.6,5.9,3.1,9.4,4.5c3.6,1.4,7.7,2,12.6,2c6.5,0,11.6-1.4,15.2-4.3c3.6-2.9,5.4-7.4,5.4-13.7
						c0-3.6-1-6.6-3-8.8c-2-2.3-4.6-4.2-7.8-5.6c-3.2-1.5-6.9-2.8-11-3.9c-4.1-1.1-8.3-2.4-12.7-3.8c-4.3-1.4-8.6-3.1-12.7-5.1
						c-4.1-2-7.8-4.7-11-8c-3.2-3.3-5.8-7.4-7.8-12.4c-2-4.9-3-11-3-18.3c0-5.8,1.2-11.5,3.5-17c2.3-5.5,5.8-10.5,10.3-14.8
						c4.5-4.3,10.1-7.8,16.7-10.4c6.6-2.6,14.2-3.9,22.7-3.9c4.8,0,9.4,0.4,13.9,1.1c4.5,0.7,8.8,1.8,12.8,3.3
						c4,1.5,7.8,3.2,11.3,5.2c3.5,2,6.7,4.3,9.4,6.9L1678.9,186.8z"/>
					<path class="st0" d="M1846.7,155.3v155.2h-36.2v-65.6h-63.1v65.6h-36.2V155.3h36.2v64.9h63.1v-64.9H1846.7z"/>
					<path class="st0" d="M1912.9,310.5h-36.2V155.3h36.2V310.5z"/>
				</g>
			</g>
		</g>
		<g>
			<g>
				<path class="st1" d="M793.9,387h-20.7v55.2h-4.3V387h-20.8v-3.6h45.7V387z"/>
				<path class="st1" d="M797,410.8c0.6-1.7,1.4-3.2,2.2-4.5c0.8-1.3,1.8-2.4,2.8-3.3c1.1-0.9,2.3-1.6,3.6-2.1
					c1.3-0.5,2.8-0.7,4.4-0.7c0.9,0,1.7,0.1,2.5,0.2c0.8,0.2,1.6,0.4,2.2,0.8l-0.3,2.7c-0.1,0.4-0.4,0.7-0.8,0.7
					c-0.3,0-0.8-0.1-1.5-0.3c-0.7-0.2-1.6-0.3-2.7-0.3c-1.6,0-3,0.2-4.3,0.7c-1.2,0.5-2.3,1.2-3.3,2.2c-1,1-1.8,2.2-2.6,3.6
					c-0.7,1.4-1.4,3.1-2,4.9v26.8h-4v-41.4h2.1c0.5,0,0.8,0.1,1,0.3c0.2,0.2,0.3,0.5,0.4,1L797,410.8z"/>
				<path class="st1" d="M856.2,400.8v41.4H854c-0.7,0-1.1-0.4-1.2-1.1l-0.4-6.2c-1.9,2.4-4.1,4.3-6.6,5.7c-2.5,1.4-5.3,2.2-8.4,2.2
					c-2.3,0-4.3-0.4-6-1.1c-1.7-0.7-3.1-1.8-4.3-3.1c-1.1-1.4-2-3-2.6-4.9c-0.6-1.9-0.9-4.1-0.9-6.5v-26.5h4v26.5
					c0,3.9,0.9,6.9,2.7,9.1c1.8,2.2,4.5,3.3,8.1,3.3c2.7,0,5.2-0.7,7.5-2.1c2.3-1.4,4.4-3.3,6.3-5.7v-31.1H856.2z"/>
				<path class="st1" d="M893.9,406c-0.2,0.4-0.5,0.6-1,0.6c-0.3,0-0.7-0.2-1.2-0.5c-0.5-0.3-1.1-0.7-1.9-1.2
					c-0.8-0.4-1.8-0.8-2.9-1.2c-1.2-0.3-2.6-0.5-4.2-0.5c-1.5,0-2.9,0.2-4.1,0.6c-1.2,0.4-2.3,1-3.2,1.7c-0.9,0.7-1.5,1.6-2,2.5
					c-0.5,1-0.7,2-0.7,3c0,1.3,0.3,2.4,1,3.2c0.7,0.9,1.5,1.6,2.6,2.2c1.1,0.6,2.3,1.1,3.7,1.6c1.4,0.4,2.8,0.9,4.2,1.3
					c1.4,0.4,2.8,0.9,4.2,1.5c1.4,0.5,2.6,1.2,3.7,2c1.1,0.8,1.9,1.8,2.6,3c0.7,1.2,1,2.6,1,4.2c0,1.8-0.3,3.5-1,5
					c-0.6,1.6-1.6,2.9-2.8,4c-1.2,1.1-2.8,2-4.6,2.7c-1.8,0.7-3.9,1-6.2,1c-2.9,0-5.4-0.5-7.5-1.4c-2.1-0.9-4-2.1-5.7-3.6l0.9-1.4
					c0.1-0.2,0.3-0.4,0.5-0.5c0.2-0.1,0.4-0.2,0.7-0.2c0.4,0,0.8,0.2,1.3,0.7c0.5,0.4,1.2,0.9,2.1,1.4c0.9,0.5,1.9,1,3.2,1.4
					c1.3,0.4,2.8,0.7,4.7,0.7c1.7,0,3.3-0.2,4.6-0.7c1.3-0.5,2.4-1.1,3.3-2c0.9-0.8,1.6-1.8,2-2.9c0.5-1.1,0.7-2.3,0.7-3.6
					c0-1.4-0.3-2.5-1-3.5c-0.7-0.9-1.5-1.7-2.6-2.3c-1.1-0.6-2.3-1.2-3.7-1.6c-1.4-0.4-2.8-0.9-4.2-1.3c-1.4-0.4-2.8-0.9-4.2-1.5
					c-1.4-0.5-2.6-1.2-3.7-2c-1.1-0.8-2-1.8-2.6-2.9c-0.7-1.1-1-2.6-1-4.3c0-1.5,0.3-2.9,1-4.2c0.6-1.4,1.5-2.6,2.7-3.6
					c1.2-1,2.6-1.8,4.3-2.5c1.7-0.6,3.6-0.9,5.7-0.9c2.5,0,4.8,0.4,6.7,1.1c2,0.7,3.7,1.8,5.3,3.3L893.9,406z"/>
				<path class="st1" d="M919.3,442.9c-2.8,0-5-0.8-6.6-2.3c-1.6-1.6-2.3-4-2.3-7.2v-28.3h-5.9c-0.3,0-0.6-0.1-0.7-0.2
					c-0.2-0.2-0.3-0.4-0.3-0.7v-1.5l7.1-0.5l1-14.8c0.1-0.2,0.2-0.5,0.3-0.7c0.2-0.2,0.4-0.3,0.7-0.3h1.9v15.8h13.1v3h-13.1v28.1
					c0,1.1,0.1,2.1,0.4,2.9c0.3,0.8,0.7,1.5,1.2,2c0.5,0.5,1.1,0.9,1.8,1.2c0.7,0.2,1.4,0.4,2.2,0.4c1,0,1.9-0.1,2.6-0.4
					c0.7-0.3,1.3-0.6,1.9-1c0.5-0.3,1-0.7,1.3-1c0.3-0.3,0.6-0.4,0.8-0.4c0.2,0,0.4,0.1,0.7,0.4l1.1,1.7c-1.1,1.2-2.4,2.1-4,2.8
					C922.7,442.5,921,442.9,919.3,442.9z"/>
				<path class="st1" d="M965.6,408.1c1.9-2.4,4.1-4.3,6.6-5.7c2.5-1.4,5.3-2.2,8.4-2.2c2.3,0,4.3,0.4,6,1.1
					c1.7,0.7,3.2,1.8,4.3,3.1c1.1,1.4,2,3,2.6,4.9c0.6,1.9,0.9,4.1,0.9,6.5v26.5h-4v-26.5c0-3.9-0.9-6.9-2.7-9.1
					c-1.8-2.2-4.5-3.3-8.1-3.3c-2.7,0-5.2,0.7-7.5,2.1c-2.3,1.4-4.4,3.3-6.3,5.7v31.1h-4v-41.4h2.2c0.7,0,1.1,0.3,1.2,1L965.6,408.1
					z"/>
				<path class="st1" d="M1025.4,400.2c3,0,5.6,0.5,8,1.5c2.3,1,4.3,2.4,5.9,4.3c1.6,1.9,2.8,4.1,3.7,6.7c0.8,2.6,1.3,5.6,1.3,8.8
					c0,3.2-0.4,6.2-1.3,8.8c-0.8,2.6-2.1,4.8-3.7,6.7c-1.6,1.9-3.6,3.3-5.9,4.3c-2.3,1-5,1.5-8,1.5c-3,0-5.6-0.5-8-1.5
					c-2.3-1-4.3-2.4-5.9-4.3c-1.6-1.9-2.9-4.1-3.7-6.7c-0.8-2.6-1.3-5.5-1.3-8.8c0-3.2,0.4-6.2,1.3-8.8c0.8-2.6,2.1-4.9,3.7-6.7
					c1.6-1.9,3.6-3.3,5.9-4.3C1019.8,400.7,1022.4,400.2,1025.4,400.2z M1025.4,439.6c2.5,0,4.6-0.4,6.5-1.3
					c1.8-0.8,3.4-2.1,4.6-3.6c1.2-1.6,2.2-3.5,2.8-5.7c0.6-2.2,0.9-4.7,0.9-7.5c0-2.7-0.3-5.2-0.9-7.5c-0.6-2.2-1.5-4.2-2.8-5.8
					c-1.2-1.6-2.8-2.8-4.6-3.7c-1.8-0.9-4-1.3-6.5-1.3c-2.5,0-4.6,0.4-6.5,1.3c-1.8,0.9-3.4,2.1-4.6,3.7c-1.2,1.6-2.2,3.5-2.8,5.8
					c-0.6,2.2-0.9,4.7-0.9,7.5c0,2.8,0.3,5.3,0.9,7.5c0.6,2.2,1.6,4.1,2.8,5.7c1.2,1.6,2.8,2.8,4.6,3.6
					C1020.8,439.2,1022.9,439.6,1025.4,439.6z"/>
				<path class="st1" d="M1097.2,400.2c3,0,5.6,0.5,8,1.5c2.3,1,4.3,2.4,5.9,4.3c1.6,1.9,2.8,4.1,3.7,6.7c0.8,2.6,1.3,5.6,1.3,8.8
					c0,3.2-0.4,6.2-1.3,8.8c-0.8,2.6-2.1,4.8-3.7,6.7c-1.6,1.9-3.6,3.3-5.9,4.3c-2.3,1-5,1.5-8,1.5c-3,0-5.6-0.5-8-1.5
					c-2.3-1-4.3-2.4-5.9-4.3c-1.6-1.9-2.9-4.1-3.7-6.7c-0.8-2.6-1.3-5.5-1.3-8.8c0-3.2,0.4-6.2,1.3-8.8c0.8-2.6,2.1-4.9,3.7-6.7
					c1.6-1.9,3.6-3.3,5.9-4.3C1091.6,400.7,1094.3,400.2,1097.2,400.2z M1097.2,439.6c2.5,0,4.6-0.4,6.5-1.3
					c1.8-0.8,3.4-2.1,4.6-3.6c1.2-1.6,2.2-3.5,2.8-5.7c0.6-2.2,0.9-4.7,0.9-7.5c0-2.7-0.3-5.2-0.9-7.5c-0.6-2.2-1.5-4.2-2.8-5.8
					c-1.2-1.6-2.8-2.8-4.6-3.7c-1.8-0.9-4-1.3-6.5-1.3c-2.5,0-4.6,0.4-6.5,1.3c-1.8,0.9-3.4,2.1-4.6,3.7c-1.2,1.6-2.2,3.5-2.8,5.8
					c-0.6,2.2-0.9,4.7-0.9,7.5c0,2.8,0.3,5.3,0.9,7.5c0.6,2.2,1.6,4.1,2.8,5.7c1.2,1.6,2.8,2.8,4.6,3.6
					C1092.6,439.2,1094.8,439.6,1097.2,439.6z"/>
				<path class="st1" d="M1132.5,408.1c1.9-2.4,4.1-4.3,6.6-5.7c2.5-1.4,5.3-2.2,8.4-2.2c2.3,0,4.3,0.4,6,1.1
					c1.7,0.7,3.2,1.8,4.3,3.1c1.1,1.4,2,3,2.6,4.9c0.6,1.9,0.9,4.1,0.9,6.5v26.5h-4v-26.5c0-3.9-0.9-6.9-2.7-9.1
					c-1.8-2.2-4.5-3.3-8.1-3.3c-2.7,0-5.2,0.7-7.5,2.1c-2.3,1.4-4.4,3.3-6.3,5.7v31.1h-4v-41.4h2.2c0.7,0,1.1,0.3,1.2,1
					L1132.5,408.1z"/>
				<path class="st1" d="M1177.3,419.9v0.8c0,3.1,0.4,5.8,1.1,8.2c0.7,2.4,1.7,4.3,3.1,5.9c1.3,1.6,2.9,2.8,4.8,3.6
					c1.9,0.8,4,1.2,6.3,1.2c2.1,0,3.9-0.2,5.4-0.7c1.5-0.5,2.8-1,3.8-1.5c1-0.6,1.9-1.1,2.5-1.5c0.6-0.5,1.1-0.7,1.3-0.7
					c0.4,0,0.6,0.1,0.8,0.4l1.1,1.3c-0.7,0.8-1.5,1.6-2.6,2.3c-1.1,0.7-2.3,1.3-3.7,1.9c-1.3,0.5-2.8,0.9-4.3,1.2
					c-1.5,0.3-3.1,0.5-4.6,0.5c-2.8,0-5.4-0.5-7.7-1.5c-2.3-1-4.3-2.4-6-4.3c-1.7-1.9-2.9-4.2-3.8-6.9c-0.9-2.7-1.4-5.9-1.4-9.4
					c0-3,0.4-5.7,1.3-8.2c0.8-2.5,2.1-4.7,3.7-6.5c1.6-1.8,3.5-3.2,5.9-4.3c2.3-1,4.9-1.5,7.9-1.5c2.3,0,4.5,0.4,6.5,1.2
					c2,0.8,3.7,2,5.2,3.5c1.5,1.5,2.6,3.4,3.5,5.7c0.8,2.2,1.3,4.8,1.3,7.7c0,0.6-0.1,1-0.2,1.2c-0.2,0.2-0.4,0.3-0.8,0.3H1177.3z
					 M1204.9,417.3c0-2.2-0.3-4.2-0.9-6c-0.6-1.8-1.5-3.3-2.6-4.5c-1.1-1.2-2.5-2.2-4.1-2.8c-1.6-0.7-3.3-1-5.2-1
					c-2.1,0-4,0.3-5.7,1c-1.7,0.7-3.2,1.6-4.4,2.9c-1.2,1.2-2.2,2.7-3,4.5c-0.7,1.7-1.2,3.7-1.5,5.9H1204.9z"/>
				<path class="st1" d="M1219.8,452.1c-0.1-0.1-0.2-0.2-0.3-0.3c0-0.1-0.1-0.2-0.1-0.4c0-0.2,0.1-0.4,0.3-0.7
					c0.2-0.3,0.6-0.7,1-1.2c0.4-0.5,0.9-1.2,1.3-1.9c0.5-0.7,0.9-1.6,1.2-2.5c0.4-0.9,0.6-1.9,0.7-3c-0.4,0.1-0.8,0.2-1.3,0.2
					c-1,0-1.9-0.3-2.5-1c-0.7-0.7-1-1.6-1-2.7c0-1,0.3-1.8,1-2.5c0.7-0.7,1.5-1,2.6-1c1.2,0,2.1,0.4,2.8,1.2c0.7,0.8,1,1.9,1,3.2
					c0,1.1-0.1,2.3-0.4,3.5c-0.3,1.2-0.7,2.3-1.3,3.5c-0.6,1.1-1.2,2.2-2,3.3c-0.8,1.1-1.6,2-2.6,2.9L1219.8,452.1z"/>
				<path class="st1" d="M1280.7,400.2c3,0,5.6,0.5,8,1.5c2.3,1,4.3,2.4,5.9,4.3c1.6,1.9,2.8,4.1,3.7,6.7c0.8,2.6,1.3,5.6,1.3,8.8
					c0,3.2-0.4,6.2-1.3,8.8c-0.8,2.6-2.1,4.8-3.7,6.7c-1.6,1.9-3.6,3.3-5.9,4.3c-2.3,1-5,1.5-8,1.5c-3,0-5.6-0.5-8-1.5
					c-2.3-1-4.3-2.4-5.9-4.3c-1.6-1.9-2.9-4.1-3.7-6.7c-0.8-2.6-1.3-5.5-1.3-8.8c0-3.2,0.4-6.2,1.3-8.8c0.8-2.6,2.1-4.9,3.7-6.7
					c1.6-1.9,3.6-3.3,5.9-4.3C1275,400.7,1277.7,400.2,1280.7,400.2z M1280.7,439.6c2.5,0,4.6-0.4,6.5-1.3c1.8-0.8,3.4-2.1,4.6-3.6
					c1.2-1.6,2.2-3.5,2.8-5.7c0.6-2.2,0.9-4.7,0.9-7.5c0-2.7-0.3-5.2-0.9-7.5c-0.6-2.2-1.5-4.2-2.8-5.8c-1.2-1.6-2.8-2.8-4.6-3.7
					c-1.8-0.9-4-1.3-6.5-1.3c-2.5,0-4.6,0.4-6.5,1.3c-1.8,0.9-3.4,2.1-4.6,3.7c-1.2,1.6-2.2,3.5-2.8,5.8c-0.6,2.2-0.9,4.7-0.9,7.5
					c0,2.8,0.3,5.3,0.9,7.5c0.6,2.2,1.6,4.1,2.8,5.7c1.2,1.6,2.8,2.8,4.6,3.6C1276,439.2,1278.2,439.6,1280.7,439.6z"/>
				<path class="st1" d="M1315.9,408.1c1.9-2.4,4.1-4.3,6.6-5.7c2.5-1.4,5.3-2.2,8.4-2.2c2.3,0,4.3,0.4,6,1.1
					c1.7,0.7,3.2,1.8,4.3,3.1c1.1,1.4,2,3,2.6,4.9c0.6,1.9,0.9,4.1,0.9,6.5v26.5h-4v-26.5c0-3.9-0.9-6.9-2.7-9.1
					c-1.8-2.2-4.5-3.3-8.1-3.3c-2.7,0-5.2,0.7-7.5,2.1c-2.3,1.4-4.4,3.3-6.3,5.7v31.1h-4v-41.4h2.2c0.7,0,1.1,0.3,1.2,1
					L1315.9,408.1z"/>
				<path class="st1" d="M1363.6,381.7v60.5h-4v-60.5H1363.6z"/>
				<path class="st1" d="M1412.5,400.8l-23.8,54.7c-0.2,0.4-0.4,0.7-0.6,1c-0.3,0.2-0.6,0.4-1.1,0.4h-2.8l7.3-16.2l-17.5-39.8h3.3
					c0.4,0,0.7,0.1,1,0.3c0.2,0.2,0.4,0.4,0.5,0.7l13.9,32.2c0.2,0.4,0.3,0.8,0.4,1.3c0.1,0.4,0.2,0.9,0.4,1.3
					c0.1-0.4,0.3-0.9,0.4-1.3c0.2-0.4,0.3-0.9,0.5-1.3l13.8-32.2c0.1-0.3,0.3-0.5,0.6-0.7c0.2-0.2,0.5-0.3,0.8-0.3H1412.5z"/>
				<path class="st1" d="M1444.1,442.2v-41.4h2.2c0.7,0,1.1,0.3,1.2,1l0.4,6c1.6-2.3,3.5-4.2,5.5-5.6c2.1-1.4,4.4-2.1,7-2.1
					c3,0,5.4,0.9,7.3,2.6c1.8,1.7,3,4.2,3.7,7.3c0.5-1.7,1.2-3.2,2.1-4.4c0.9-1.2,1.9-2.3,3.1-3.1c1.2-0.8,2.4-1.4,3.8-1.8
					c1.4-0.4,2.8-0.6,4.2-0.6c2.1,0,3.9,0.3,5.5,1c1.6,0.7,3,1.7,4.2,3c1.1,1.3,2,3,2.6,4.9c0.6,1.9,0.9,4.2,0.9,6.7v26.5h-4v-26.5
					c0-4-0.9-7.1-2.6-9.3c-1.7-2.1-4.2-3.2-7.5-3.2c-1.4,0-2.8,0.3-4.1,0.8c-1.3,0.5-2.5,1.3-3.5,2.3c-1,1-1.8,2.3-2.4,3.9
					c-0.6,1.6-0.9,3.4-0.9,5.4v26.5h-4v-26.5c0-4-0.8-7.1-2.4-9.2c-1.6-2.1-3.9-3.2-7-3.2c-2.2,0-4.3,0.7-6.2,2
					c-1.9,1.3-3.6,3.2-5.1,5.5v31.4H1444.1z"/>
				<path class="st1" d="M1518.6,386.6c0,0.5-0.1,1-0.3,1.4c-0.2,0.4-0.5,0.8-0.8,1.1c-0.3,0.3-0.7,0.6-1.2,0.8
					c-0.4,0.2-0.9,0.3-1.4,0.3s-1-0.1-1.4-0.3c-0.4-0.2-0.8-0.5-1.2-0.8c-0.3-0.3-0.6-0.7-0.8-1.1c-0.2-0.4-0.3-0.9-0.3-1.4
					c0-0.5,0.1-1,0.3-1.4c0.2-0.5,0.5-0.9,0.8-1.2c0.3-0.3,0.7-0.6,1.2-0.8c0.4-0.2,0.9-0.3,1.4-0.3s1,0.1,1.4,0.3
					c0.4,0.2,0.8,0.5,1.2,0.8c0.3,0.3,0.6,0.7,0.8,1.2C1518.5,385.6,1518.6,386.1,1518.6,386.6z M1516.9,400.8v41.4h-4v-41.4H1516.9
					z"/>
				<path class="st1" d="M1536.4,381.7v36.9h1.9c0.4,0,0.8-0.1,1.1-0.2c0.3-0.1,0.7-0.4,1.1-0.8l16.6-15.8c0.3-0.3,0.6-0.6,0.9-0.8
					c0.3-0.2,0.7-0.3,1.2-0.3h3.5l-18.3,17.3c-0.5,0.6-1,1-1.6,1.4c0.4,0.2,0.8,0.5,1.1,0.8c0.3,0.3,0.6,0.6,0.9,1l19.2,20.9h-3.5
					c-0.4,0-0.7-0.1-1.1-0.2c-0.3-0.1-0.6-0.4-0.9-0.8l-17.4-18.6c-0.2-0.2-0.4-0.5-0.6-0.6c-0.2-0.2-0.4-0.3-0.6-0.4
					c-0.2-0.1-0.5-0.2-0.8-0.2c-0.3,0-0.6-0.1-1.1-0.1h-1.9v20.9h-4v-60.5H1536.4z"/>
				<path class="st1" d="M1572.3,406.7c2.2-2.2,4.4-3.8,6.8-4.9c2.4-1.1,5.1-1.7,8.1-1.7c2.2,0,4.2,0.4,5.8,1.1c1.7,0.7,3,1.7,4.1,3
					c1.1,1.3,1.9,2.9,2.5,4.8c0.6,1.9,0.8,4,0.8,6.3v27h-1.6c-0.8,0-1.3-0.4-1.5-1.2l-0.6-5.3c-1.1,1.1-2.3,2.1-3.4,3
					c-1.1,0.9-2.3,1.6-3.5,2.2c-1.2,0.6-2.5,1.1-4,1.4c-1.4,0.3-3,0.5-4.7,0.5c-1.4,0-2.8-0.2-4.1-0.6c-1.3-0.4-2.5-1.1-3.6-1.9
					c-1-0.9-1.9-2-2.5-3.3c-0.6-1.3-0.9-3-0.9-4.8c0-1.7,0.5-3.4,1.5-4.9c1-1.5,2.6-2.8,4.7-3.9c2.1-1.1,4.9-2,8.2-2.7
					c3.3-0.7,7.4-1.1,12-1.2v-4.3c0-3.8-0.8-6.8-2.5-8.8c-1.7-2.1-4.1-3.1-7.3-3.1c-2,0-3.7,0.3-5.1,0.8c-1.4,0.6-2.6,1.2-3.6,1.8
					c-1,0.7-1.8,1.3-2.4,1.8c-0.6,0.6-1.1,0.8-1.5,0.8c-0.3,0-0.6-0.1-0.7-0.2c-0.2-0.1-0.4-0.3-0.5-0.5L1572.3,406.7z
					 M1596.6,422.2c-3.9,0.1-7.3,0.5-10.2,0.9c-2.8,0.5-5.2,1.1-7,2c-1.8,0.8-3.2,1.8-4.1,3c-0.9,1.2-1.3,2.5-1.3,3.9
					c0,1.4,0.2,2.6,0.7,3.6c0.5,1,1.1,1.8,1.8,2.5c0.8,0.7,1.6,1.1,2.6,1.4c1,0.3,2,0.5,3.1,0.5c1.6,0,3.1-0.2,4.4-0.5
					c1.3-0.3,2.6-0.8,3.7-1.5c1.2-0.6,2.2-1.4,3.2-2.2c1-0.9,2-1.8,3-2.8V422.2z"/>
				<path class="st1" d="M1661.9,406c-0.2,0.4-0.5,0.6-1,0.6c-0.3,0-0.7-0.2-1.2-0.5c-0.5-0.3-1.1-0.7-1.9-1.2
					c-0.8-0.4-1.8-0.8-2.9-1.2c-1.2-0.3-2.6-0.5-4.2-0.5c-1.5,0-2.9,0.2-4.1,0.6c-1.2,0.4-2.3,1-3.2,1.7c-0.9,0.7-1.5,1.6-2,2.5
					c-0.5,1-0.7,2-0.7,3c0,1.3,0.3,2.4,1,3.2c0.7,0.9,1.5,1.6,2.6,2.2c1.1,0.6,2.3,1.1,3.7,1.6c1.4,0.4,2.8,0.9,4.2,1.3
					c1.4,0.4,2.8,0.9,4.2,1.5c1.4,0.5,2.6,1.2,3.7,2c1.1,0.8,1.9,1.8,2.6,3c0.7,1.2,1,2.6,1,4.2c0,1.8-0.3,3.5-1,5
					c-0.6,1.6-1.6,2.9-2.8,4c-1.2,1.1-2.8,2-4.6,2.7c-1.8,0.7-3.9,1-6.2,1c-2.9,0-5.4-0.5-7.5-1.4c-2.1-0.9-4-2.1-5.7-3.6l0.9-1.4
					c0.1-0.2,0.3-0.4,0.5-0.5c0.2-0.1,0.4-0.2,0.7-0.2c0.4,0,0.8,0.2,1.3,0.7c0.5,0.4,1.2,0.9,2.1,1.4c0.9,0.5,1.9,1,3.2,1.4
					c1.3,0.4,2.8,0.7,4.7,0.7c1.7,0,3.3-0.2,4.6-0.7c1.3-0.5,2.4-1.1,3.3-2c0.9-0.8,1.6-1.8,2-2.9c0.5-1.1,0.7-2.3,0.7-3.6
					c0-1.4-0.3-2.5-1-3.5c-0.7-0.9-1.5-1.7-2.6-2.3c-1.1-0.6-2.3-1.2-3.7-1.6c-1.4-0.4-2.8-0.9-4.2-1.3c-1.4-0.4-2.8-0.9-4.2-1.5
					c-1.4-0.5-2.6-1.2-3.7-2c-1.1-0.8-2-1.8-2.6-2.9c-0.7-1.1-1-2.6-1-4.3c0-1.5,0.3-2.9,1-4.2c0.6-1.4,1.5-2.6,2.7-3.6
					c1.2-1,2.6-1.8,4.3-2.5c1.7-0.6,3.6-0.9,5.7-0.9c2.5,0,4.8,0.4,6.7,1.1c2,0.7,3.7,1.8,5.3,3.3L1661.9,406z"/>
				<path class="st1" d="M1708,400.8v41.4h-2.2c-0.7,0-1.1-0.4-1.2-1.1l-0.4-6.2c-1.9,2.4-4.1,4.3-6.6,5.7c-2.5,1.4-5.3,2.2-8.4,2.2
					c-2.3,0-4.3-0.4-6-1.1s-3.1-1.8-4.3-3.1c-1.1-1.4-2-3-2.6-4.9c-0.6-1.9-0.9-4.1-0.9-6.5v-26.5h4v26.5c0,3.9,0.9,6.9,2.7,9.1
					c1.8,2.2,4.5,3.3,8.1,3.3c2.7,0,5.2-0.7,7.5-2.1c2.3-1.4,4.4-3.3,6.3-5.7v-31.1H1708z"/>
				<path class="st1" d="M1745.8,406c-0.2,0.4-0.5,0.6-1,0.6c-0.3,0-0.7-0.2-1.2-0.5c-0.5-0.3-1.1-0.7-1.9-1.2
					c-0.8-0.4-1.8-0.8-2.9-1.2c-1.2-0.3-2.6-0.5-4.2-0.5c-1.5,0-2.9,0.2-4.1,0.6c-1.2,0.4-2.3,1-3.2,1.7c-0.9,0.7-1.5,1.6-2,2.5
					c-0.5,1-0.7,2-0.7,3c0,1.3,0.3,2.4,1,3.2c0.7,0.9,1.5,1.6,2.6,2.2c1.1,0.6,2.3,1.1,3.7,1.6c1.4,0.4,2.8,0.9,4.2,1.3
					c1.4,0.4,2.8,0.9,4.2,1.5c1.4,0.5,2.6,1.2,3.7,2c1.1,0.8,1.9,1.8,2.6,3c0.7,1.2,1,2.6,1,4.2c0,1.8-0.3,3.5-1,5
					c-0.6,1.6-1.6,2.9-2.8,4c-1.2,1.1-2.8,2-4.6,2.7c-1.8,0.7-3.9,1-6.2,1c-2.9,0-5.4-0.5-7.5-1.4c-2.1-0.9-4-2.1-5.7-3.6l0.9-1.4
					c0.1-0.2,0.3-0.4,0.5-0.5c0.2-0.1,0.4-0.2,0.7-0.2c0.4,0,0.8,0.2,1.3,0.7c0.5,0.4,1.2,0.9,2.1,1.4c0.9,0.5,1.9,1,3.2,1.4
					c1.3,0.4,2.8,0.7,4.7,0.7c1.7,0,3.3-0.2,4.6-0.7c1.3-0.5,2.4-1.1,3.3-2c0.9-0.8,1.6-1.8,2-2.9c0.5-1.1,0.7-2.3,0.7-3.6
					c0-1.4-0.3-2.5-1-3.5c-0.7-0.9-1.5-1.7-2.6-2.3c-1.1-0.6-2.3-1.2-3.7-1.6c-1.4-0.4-2.8-0.9-4.2-1.3c-1.4-0.4-2.8-0.9-4.2-1.5
					c-1.4-0.5-2.6-1.2-3.7-2c-1.1-0.8-2-1.8-2.6-2.9c-0.7-1.1-1-2.6-1-4.3c0-1.5,0.3-2.9,1-4.2c0.6-1.4,1.5-2.6,2.7-3.6
					c1.2-1,2.6-1.8,4.3-2.5c1.7-0.6,3.6-0.9,5.7-0.9c2.5,0,4.8,0.4,6.7,1.1c2,0.7,3.7,1.8,5.3,3.3L1745.8,406z"/>
				<path class="st1" d="M1763.8,407.8c1.9-2.3,4.1-4.2,6.6-5.6c2.5-1.4,5.2-2.1,8.3-2.1c2.3,0,4.3,0.4,6,1.1
					c1.7,0.7,3.2,1.8,4.3,3.1c1.1,1.4,2,3,2.6,4.9c0.6,1.9,0.9,4.1,0.9,6.5v26.5h-4v-26.5c0-3.9-0.9-6.9-2.7-9.1
					c-1.8-2.2-4.5-3.3-8.1-3.3c-2.7,0-5.2,0.7-7.5,2.1c-2.3,1.4-4.4,3.3-6.3,5.7v31.1h-4v-60.5h4V407.8z"/>
				<path class="st1" d="M1813,386.6c0,0.5-0.1,1-0.3,1.4c-0.2,0.4-0.5,0.8-0.8,1.1c-0.3,0.3-0.7,0.6-1.2,0.8
					c-0.4,0.2-0.9,0.3-1.4,0.3s-1-0.1-1.4-0.3c-0.4-0.2-0.8-0.5-1.2-0.8c-0.3-0.3-0.6-0.7-0.8-1.1c-0.2-0.4-0.3-0.9-0.3-1.4
					c0-0.5,0.1-1,0.3-1.4c0.2-0.5,0.5-0.9,0.8-1.2c0.3-0.3,0.7-0.6,1.2-0.8c0.4-0.2,0.9-0.3,1.4-0.3s1,0.1,1.4,0.3
					c0.4,0.2,0.8,0.5,1.2,0.8c0.3,0.3,0.6,0.7,0.8,1.2C1812.9,385.6,1813,386.1,1813,386.6z M1811.3,400.8v41.4h-4v-41.4H1811.3z"/>
				<path class="st1" d="M1850.7,439c0-0.5,0.1-1,0.3-1.5c0.2-0.5,0.5-0.9,0.8-1.2c0.3-0.3,0.7-0.6,1.2-0.8c0.5-0.2,1-0.3,1.5-0.3
					c0.5,0,1,0.1,1.5,0.3c0.5,0.2,0.9,0.5,1.2,0.8c0.3,0.3,0.6,0.8,0.8,1.2c0.2,0.5,0.3,1,0.3,1.5c0,0.6-0.1,1.1-0.3,1.5
					c-0.2,0.5-0.5,0.9-0.8,1.2c-0.3,0.3-0.8,0.6-1.2,0.8c-0.5,0.2-1,0.3-1.5,0.3c-1.1,0-2-0.4-2.7-1.1
					C1851.1,441,1850.7,440.1,1850.7,439z M1856.6,383.4v23.8c0,1.2,0,2.4,0,3.5c0,1.1-0.1,2.2-0.1,3.4c0,1.2-0.1,2.4-0.2,3.6
					c-0.1,1.3-0.2,2.7-0.2,4.2h-2.7c-0.1-1.6-0.2-3-0.2-4.2c-0.1-1.3-0.1-2.5-0.2-3.6c0-1.2-0.1-2.3-0.1-3.4c0-1.1,0-2.3,0-3.5
					v-23.8H1856.6z"/>
			</g>
		</g>
	</g>
	<g>
		<path class="st2" d="M184.5,438.4c0,0,52.5,13.3,49.4-32.1c0,0,40.9,67.4,131.2,94.9C365.1,501.2,306,535.5,184.5,438.4z"/>
		<path class="st2" d="M501.8,389.8c-3.5-32.6-55.6-129.3-140.2-139.4c-84.6-10.2-40.7,39.2-30.4,50.9
			c10.3,11.8,51.5,46.2,51.5,46.2c55.7,51.1,42.3,93.2,27.4,114.4c-14.9,21.2-40.7,39.2-40.7,39.2
			C508.1,505,504.7,417.3,501.8,389.8z M383.5,307c-6.2,0-11.2-5-11.2-11.2c0-6.2,5-11.2,11.2-11.2c6.2,0,11.2,5,11.2,11.2
			C394.7,302,389.7,307,383.5,307z"/>
		<path class="st1" d="M446.8,173.7c0,0-53.4-9.2-46.7,35.9c0,0-46.1-64-138.2-84.4C261.9,125.1,318.1,86.3,446.8,173.7z"/>
		<path class="st1" d="M311.3,321.8c-11.2-10.9-55-42.1-55-42.1c-59.6-46.6-49.4-89.6-36.3-111.9c13.2-22.2,37.6-42.2,37.6-42.2
			c-138.5,6.9-127.8,91.7-123.3,121.2c3.5,22.8,65.5,124.5,150.7,128.1C370.1,378.5,322.5,332.7,311.3,321.8z M260.4,342.5
			c-6.2,0.5-11.6-4.1-12.1-10.3c-0.5-6.2,4.1-11.6,10.3-12.1c6.2-0.5,11.6,4.1,12.1,10.3S266.6,342,260.4,342.5z"/>
		<path class="st0" d="M318.6,36.5C170.5,36.5,50,157.1,50,305.2c0,148.2,120.5,268.7,268.7,268.7s268.7-120.5,268.7-268.7
			C587.3,157.1,466.8,36.5,318.6,36.5z M318.6,558.2c-139.5,0-253-113.5-253-253s113.5-253,253-253s253,113.5,253,253
			S458.2,558.2,318.6,558.2z"/>
	</g>
</g>
</svg>
