<?xml version="1.0" encoding="UTF-8"?>
<!-- Generator: Adobe Illustrator 19.0.0, SVG Export Plug-In . SVG Version: 6.00 Build 0)  -->
<svg version="1.1" id="Layer_1" xmlns="http://www.w3.org/2000/svg" xmlns:xlink="http://www.w3.org/1999/xlink" x="0px" y="0px" viewBox="0 0 28.9 32.1" style="enable-background:new 0 0 28.9 32.1;" xml:space="preserve">
<style type="text/css">
	.st0{opacity:0.6;fill:#95A1BB;}
	.st1{opacity:0.8;fill:#95A1BB;}
	.st2{fill:#95A1BB;}
</style>
<g id="XMLID_1513_">
	<path id="XMLID_1521_" class="st0" d="M0.6,0.5C0.2,0.9,0,1.5,0,2.3v27.6c0,0.8,0.2,1.4,0.6,1.8l0.1,0.1l15.5-15.5v-0.2v-0.2   L0.6,0.5L0.6,0.5z"/>
	<path id="XMLID_1516_" class="st1" d="M21.4,21.3l-5.3-5.3L0.6,31.6c0.6,0.6,1.5,0.7,2.6,0.1L21.4,21.3"/>
	<path id="XMLID_1515_" class="st1" d="M21.4,10.8L3.2,0.4c-1.1-0.6-2-0.5-2.6,0.1l15.6,15.6L21.4,10.8z"/>
	<path id="XMLID_1514_" class="st2" d="M21.3,21.4l-5.2-5.2v-0.2v-0.2l5.2-5.2l0.1,0.1l6.1,3.5c1.7,1,1.7,2.6,0,3.6l-6.1,3.5   L21.3,21.4z"/>
</g>
</svg>